# xmcd
#
# Track frame offsets: 
#        182
#        17375
#        29940
#        39965
#        56342
#        69010
#        83727
#        101750
#        113807
#        133047
#        143240
#        155685
#        169825
#        184630
#
# Disc length: 2610 seconds
#
# Revision: 1
# Processed by: cddbd v1.5.2PL0 Copyright (c) Steve Scherf et al.
# Submitted via: ExactAudioCopyFreeDBPlugin 1.0
#
DISCID=b30a300e
DTITLE=Various Artist - The World Of Country And Weastern Songs Vol.4
DYEAR=1900
DGENRE=Country
TTITLE0=Atlanta - Sweet Country Music
TTITLE1=Mel Tillis - In the middle of the night
TTITLE2=Faron Young - Hello Walls
TTITLE3=The Osmonds - He ain't heavy, he's my brother
TTITLE4=Charlie Rich - Behind closed doors
TTITLE5=Jeanny C. Riley - Haper Valley PTA
TTITLE6=Nitty Gritty Dirt Band - Partners, Brothers, Friends
TTITLE7=Lynn Anderson - Rose Garden
TTITLE8=Tanya Tucker - Delta Dawn
TTITLE9=Freddy Fender - Wasted day and wasted nights
TTITLE10=Faron Young - It's four in the morning
TTITLE11=George Jones - Who's gonna fill their shoes
TTITLE12=Tom T Hall - I like Beer
TTITLE13=Bellamy Brothers -  Let your love flow
EXTD=
EXTT0=
EXTT1=
EXTT2=
EXTT3=
EXTT4=
EXTT5=
EXTT6=
EXTT7=
EXTT8=
EXTT9=
EXTT10=
EXTT11=
EXTT12=
EXTT13=
PLAYORDER=
